<svg version="1" xmlns="http://www.w3.org/2000/svg" width="682.667" height="682.667" viewBox="0 0 512.000000 512.000000"><path d="M232 1c-50.2 5.2-98.3 24.9-136.5 55.7-17.3 14-35.5 33.2-48.1 50.8-5.7 8-17.4 27.3-17.4 28.8 0 .9 46.2.4 83.2-.9 43.2-1.6 68.2 7.4 79 28.3 4.7 8.9 6.1 15.7 6.1 27.8-.1 26.6-13.2 46.9-35.3 54.9l-6.3 2.3 6.7.7c15.2 1.5 30 8.6 38.6 18.4 5.5 6.2 10.6 17.1 12.1 25.7.7 4.2.9 11 .6 17.5-1.1 18.4-6.2 31.4-16.7 42.1-18.2 18.4-50.6 26.5-95.5 23.9-8.8-.5-28.8-1-44.3-1H29.8l3.2 5.8c19.1 34.1 49.4 66.4 83 88.5 13.6 8.9 38.4 21.2 53.6 26.6 14.5 5.2 34.9 10.2 50.9 12.7 16.9 2.6 54.1 2.6 71 0 46.5-7.1 89.9-26 125-54.3 24.5-19.7 47.6-47 62.5-73.6l3.2-5.7H398v-8c0-4.4.2-8 .4-8s5-1 10.7-2.1c11.4-2.3 15.3-3.9 16.9-6.8.6-1.3 1-17.4 1-45V263H315v86.9l2.3 2.6c1.8 2.2 4.2 3 14.6 5 6.8 1.4 12.6 2.5 12.8 2.5.2 0 .3 3.6.3 8v8h-97v-15.8l11.8-2.2c6.4-1.1 13.2-2.6 15-3.2 6.5-2 6.3 2.1 6-99.9l-.3-92.1-2.7-2.3c-1.9-1.7-5.7-2.8-14.5-4.4-6.5-1.2-12.6-2.5-13.5-2.7-1.5-.5-1.8-1.8-1.8-8.5V137h97v7.9c0 6.7-.3 8-1.7 8.5-1 .2-6.7 1.5-12.8 2.7-8.1 1.7-11.5 2.9-13.2 4.5l-2.3 2.3V244h112v-80.2l-2.8-2.8c-2.1-2.1-4.8-3.2-10.8-4.5-4.3-.9-9.6-2.1-11.6-2.6l-3.8-1V137h42c23.1 0 42-.4 42-.9 0-1.3-12-20.9-17.4-28.6-17.8-24.8-42.8-48.8-68.6-65.8-13.6-8.9-38.4-21.2-53.6-26.6-13.9-5-35.5-10.4-50.4-12.6C279.6.6 244.2-.3 232 1z"/><path d="M100 151.5c-.8.2-4.5.7-8.2 1l-6.8.7V243h21.1c25.5 0 32-1.2 41.1-7.3 3.5-2.4 7.6-6.3 9.5-9 9.1-13.4 10.9-38.9 3.9-54.3-4.6-10-11.6-15.6-23.9-19.1-4.8-1.3-33-2.8-36.7-1.8zM19.2 158.7c-6.9 16.2-13.6 41-16.8 61.8-2.6 16.9-2.6 54.1 0 71 3.2 21 9.4 43.3 17.7 64.2 1.6 3.9 2.3 4 16.2 1.4 7.1-1.4 10.5-2.5 12.3-4.1l2.4-2.3v-93.8c0-88.4-.1-93.8-1.8-95.9-1.4-1.7-4.4-2.7-13.2-4.6-6.3-1.3-12.2-2.3-13.1-2.4-1 0-2.4 1.8-3.7 4.7zM477.1 156.1c-10.4 2.1-13.7 3.7-15.1 7.5-.6 1.5-1 38.1-1 93.5 0 100.5-.3 95.7 6.2 97.8 3.8 1.2 19.2 4.1 21.7 4.1.9 0 2.2-1.4 3-3.2 8.3-21 14.5-43.3 17.7-64.3 1.4-9.1 1.8-17.7 1.8-35.5s-.4-26.4-1.8-35.5c-3.2-20.8-9.9-45.6-16.8-61.8-2.4-5.4-1.9-5.4-15.7-2.6zM96.3 261.7l-11.3.4V358.8l8.8.9c14.3 1.3 38.8.9 46.9-1C165.9 353.1 178 337 178 309c0-26.2-10-40.2-32.5-45.6-6.5-1.5-30.8-2.4-49.2-1.7z"/></svg>